<?xml version="1.0" encoding="utf-8"?>
<!-- Generator: Adobe Illustrator 23.0.3, SVG Export Plug-In . SVG Version: 6.00 Build 0)  -->
<svg version="1.1" id="Layer_1" xmlns="http://www.w3.org/2000/svg" xmlns:xlink="http://www.w3.org/1999/xlink" x="0px" y="0px"
	 viewBox="0 0 2000 2000" style="enable-background:new 0 0 2000 2000;" xml:space="preserve">
<style type="text/css">
	.st0{fill:#FFFFFF;}
</style>
<g>
	<path d="M2001.67,2000c-0.28,0.56-0.53,1.57-0.84,1.59c-2.21,0.14-4.44,0.07-6.66,0.07c-664.17,0-1328.33,0-1992.5,0
		c0-666.67,0-1333.33,0-2000c2.22,0,4.44,0,6.67,0c2.2,2.49,4.27,5.11,6.62,7.46c96.12,96.36,192.26,192.69,288.4,289.03
		c2.26,2.26,4.45,4.6,6.67,6.91c-0.23,0.59-0.46,1.18-0.69,1.76c-70,0-139.99,0-210.24,0c0,427.91,0,854.68,0,1282.49
		c4.26,0,8.08,0,11.9,0c169.15,0,338.31,0.02,507.46-0.04c11.38,0,22.78-0.23,34.13-0.96c37.58-2.41,73.34-11.75,106.84-29.14
		c47.31-24.57,83.43-61.18,112.66-105.13c14.53-21.85,23.31-45.77,26.71-71.91c4.28-32.85,5.7-65.86,5.8-98.88
		c0.36-123.6,0.14-247.2,0.15-370.8c0-3.15,0.16-6.29,0.25-9.56c1.33,0.28,1.66,0.24,1.81,0.39
		c61.87,61.85,123.73,123.72,185.59,185.58c0.39,0.39,0.82,0.75,1.25,1.09c0.21,0.16,0.48,0.27,0.73,0.35
		c0.25,0.08,0.53,0.15,0.78,0.11c0.26-0.05,0.49-0.25,0.73-0.39c0.11-0.24,0.27-0.46,0.31-0.71c0.09-0.54,0.17-1.1,0.17-1.65
		c0.01-257.76,0.02-515.51,0.03-773.27c0-0.83,0-1.67,0.01-2.5c0.01-0.56,0.03-1.11,0.06-1.67c0.01-0.28,0.04-0.55,0.09-0.82
		c0.05-0.27,0.11-0.55,0.2-0.81c0.09-0.25,0.19-0.51,0.35-0.71c0.17-0.22,0.41-0.37,1.29-1.15c2.88,0,6.46,0,10.03,0
		c175.54,0,351.08-0.14,526.62,0.15c27.18,0.05,54.4,1.47,81.52,3.41c23.02,1.65,45.65,6.03,66.89,15.86
		c27.64,12.79,51,31.31,71.85,53.23c23.31,24.51,37.32,53.32,41.7,87.06c3.47,26.78,5.05,53.61,5.06,80.56
		c0.03,244.15,0.04,488.29-0.01,732.44c-0.01,33.61-1.22,67.17-5.36,100.58c-2.83,22.88-9.41,44.41-21.09,64.4
		c-11.99,20.5-26.53,39.03-42.65,56.35c-51.52,55.32-115.04,84.8-190.63,87.92c-14.14,0.58-28.32,0.4-42.48,0.65
		c-1.97,0.04-3.93,0.56-5.89,0.86c-0.31,0.67-0.62,1.34-0.94,2.01c2.41,1.88,5.06,3.52,7.21,5.67
		c59.1,59.14,118.14,118.33,177.2,177.5C1852.16,1850.27,1926.92,1925.13,2001.67,2000z M1375.78,1372.92
		c0.21-0.63,0.42-1.25,0.64-1.88c2.91,0,5.82,0,8.73,0c35,0,70,0.09,104.99-0.04c15.54-0.06,31.15,0.21,46.62-1.06
		c47.2-3.89,79.78-27.84,95.01-72.46c7.52-22.05,10.21-44.84,10.2-68.04c-0.02-197.49,0.06-394.98-0.16-592.46
		c-0.01-12.69-1.38-25.53-3.58-38.05c-6.61-37.62-28.43-61.29-66.37-68.64c-12.76-2.47-25.82-4.64-38.76-4.78
		c-56.38-0.59-112.77-0.38-169.15-0.41c-1.81,0-3.62,0.55-6.12,0.96c0,275.82,0,551.18,0,826.55c-0.52,0.26-1.03,0.52-1.55,0.78
		c-86.1-86.29-172.2-172.59-259.49-260.08c0,166.31,0,330.61,0,494.93c1.02,0.37,1.79,0.89,2.55,0.89
		c161.65,0.09,323.31,0.14,484.96,0.18c1.38,0,2.76-0.2,4.13-0.37c0.21-0.03,0.43-0.35,0.57-0.58c0.13-0.2,0.16-0.46,0.44-1.33
		C1518.36,1515.81,1447.07,1444.36,1375.78,1372.92z"/>
	<path class="st0" d="M2001.67,2000c-74.75-74.87-149.51-149.73-224.25-224.6c-59.07-59.17-118.1-118.36-177.2-177.5
		c-2.15-2.15-4.79-3.79-7.21-5.67c0.31-0.67,0.62-1.34,0.94-2.01c1.96-0.3,3.93-0.82,5.89-0.86c14.16-0.25,28.33-0.07,42.48-0.65
		c75.59-3.12,139.11-32.6,190.63-87.92c16.12-17.31,30.66-35.85,42.65-56.35c11.69-19.98,18.26-41.52,21.09-64.4
		c4.14-33.41,5.36-66.97,5.36-100.58c0.05-244.15,0.04-488.29,0.01-732.44c0-26.95-1.59-53.79-5.06-80.56
		c-4.37-33.73-18.39-62.55-41.7-87.06c-20.85-21.92-44.21-40.44-71.85-53.23c-21.24-9.83-43.87-14.21-66.89-15.86
		c-27.12-1.94-54.34-3.37-81.52-3.41c-175.54-0.29-351.08-0.15-526.62-0.15c-3.57,0-7.15,0-10.03,0c-0.88,0.77-1.13,0.93-1.29,1.15
		c-0.16,0.21-0.26,0.46-0.35,0.71c-0.09,0.26-0.15,0.53-0.2,0.81c-0.05,0.27-0.07,0.55-0.09,0.82c-0.03,0.55-0.05,1.11-0.06,1.67
		c-0.01,0.83-0.01,1.67-0.01,2.5c-0.01,257.76-0.01,515.51-0.03,773.27c0,0.55-0.08,1.11-0.17,1.65c-0.04,0.25-0.2,0.47-0.31,0.71
		c-0.24,0.14-0.47,0.34-0.73,0.39c-0.24,0.05-0.53-0.03-0.78-0.11c-0.26-0.08-0.52-0.19-0.73-0.35c-0.44-0.34-0.86-0.7-1.25-1.09
		c-61.86-61.86-123.72-123.72-185.59-185.58c-0.15-0.15-0.49-0.12-1.81-0.39c-0.09,3.27-0.25,6.42-0.25,9.56
		c-0.01,123.6,0.2,247.2-0.15,370.8c-0.1,33.02-1.52,66.03-5.8,98.88c-3.4,26.14-12.18,50.06-26.71,71.91
		c-29.23,43.94-65.35,80.56-112.66,105.13c-33.5,17.4-69.26,26.73-106.84,29.14c-11.35,0.73-22.75,0.96-34.13,0.96
		c-169.15,0.06-338.31,0.04-507.46,0.04c-3.82,0-7.64,0-11.9,0c0-427.82,0-854.58,0-1282.49c70.25,0,140.24,0,210.24,0
		c0.23-0.59,0.46-1.18,0.69-1.76c-2.22-2.3-4.41-4.64-6.67-6.91C207.21,201.82,111.07,105.49,14.95,9.13
		c-2.34-2.35-4.42-4.97-6.62-7.46c664.31,0,1328.61,0,1993.33,0C2001.67,667.78,2001.67,1333.89,2001.67,2000z M360.74,525.1
		c0,282.22,0,563.47,0,845.51c3.19,0.15,6.16,0.41,9.14,0.41c50.28,0.02,100.55,0.18,150.83-0.11c10.78-0.06,21.7-0.93,32.3-2.84
		c36.55-6.58,62.88-26.65,77.4-61.2c3.21-7.64,5.77-15.63,7.83-23.67c5.62-21.95,6.49-44.42,6.49-66.96
		c-0.02-188.05-0.01-376.1-0.01-564.15c0-3.18,0-6.36,0-9.45c1.44,0,1.7-0.06,1.92,0.02c0.26,0.08,0.48,0.27,0.71,0.43
		c0.22,0.16,0.43,0.35,0.64,0.54c0.21,0.18,0.41,0.37,0.61,0.56c0.4,0.39,0.79,0.78,1.18,1.17
		c82.8,82.97,165.61,165.94,248.41,248.91c0.59,0.59,1.18,1.18,1.77,1.77c0.2,0.2,0.38,0.4,0.58,0.6c0.2,0.19,0.4,0.39,0.62,0.56
		c0.43,0.35,0.84,0.71,1.3,1.01c0.22,0.14,0.53,0.23,0.79,0.22c0.26-0.01,0.5-0.18,1.47-0.57c0-2.66,0-5.63,0-8.61
		c0-112.77,0.06-225.55-0.05-338.32c-0.03-26.94-1.23-53.85-4.76-80.6c-3.12-23.65-9.12-46.34-22.87-66.27
		c-24.39-35.33-56.04-62.11-95.35-79.51c-7.81-3.46-16.15-5.99-24.47-8.02c-30.68-7.49-62.07-9.35-93.43-9.48
		c-114.44-0.46-228.88-0.24-343.32-0.26c-2.06,0-4.13,0.33-7.87,0.64C385.16,380.15,456.58,451.74,528,523.33
		c-0.26,0.59-0.53,1.18-0.79,1.77C471.87,525.1,416.53,525.1,360.74,525.1z"/>
	<path class="st0" d="M1375.78,1372.92c71.29,71.44,142.59,142.88,213.67,214.11c-0.28,0.87-0.32,1.13-0.44,1.33
		c-0.15,0.23-0.36,0.55-0.57,0.58c-1.37,0.17-2.75,0.37-4.13,0.37c-161.65-0.04-323.31-0.09-484.96-0.18
		c-0.77,0-1.53-0.52-2.55-0.89c0-164.32,0-328.62,0-494.93c87.29,87.49,173.39,173.79,259.49,260.08c0.52-0.26,1.03-0.52,1.55-0.78
		c0-275.36,0-550.73,0-826.55c2.5-0.41,4.31-0.96,6.12-0.96c56.38,0.03,112.77-0.17,169.15,0.41c12.94,0.13,26,2.3,38.76,4.78
		c37.94,7.35,59.76,31.02,66.37,68.64c2.2,12.51,3.57,25.35,3.58,38.05c0.22,197.49,0.15,394.98,0.16,592.46
		c0,23.2-2.68,45.99-10.2,68.04c-15.23,44.62-47.81,68.57-95.01,72.46c-15.46,1.27-31.07,1-46.62,1.06c-35,0.14-70,0.04-104.99,0.04
		c-2.91,0-5.82,0-8.73,0C1376.2,1371.67,1375.99,1372.29,1375.78,1372.92z M1358.61,1370.64c4.73,0.18,8.88,1.51,12.07-0.41
		c-4.07-4.26-7.94-8.3-12.07-12.62C1358.61,1361.7,1358.61,1365.69,1358.61,1370.64z"/>
	<path d="M360.74,525.1c55.79,0,111.13,0,166.46,0c0.26-0.59,0.53-1.18,0.79-1.77c-71.42-71.59-142.84-143.18-215.41-215.92
		c3.75-0.32,5.81-0.64,7.87-0.64c114.44,0.01,228.88-0.2,343.32,0.26c31.36,0.13,62.75,1.99,93.43,9.48
		c8.32,2.03,16.65,4.56,24.47,8.02c39.3,17.41,70.96,44.18,95.35,79.51c13.75,19.93,19.75,42.62,22.87,66.27
		c3.53,26.75,4.74,53.66,4.76,80.6c0.11,112.77,0.05,225.55,0.05,338.32c0,2.98,0,5.95,0,8.61c-0.96,0.39-1.21,0.56-1.47,0.57
		c-0.26,0.01-0.57-0.07-0.79-0.22c-0.46-0.3-0.88-0.66-1.3-1.01c-0.22-0.18-0.42-0.37-0.62-0.56c-0.2-0.19-0.38-0.4-0.58-0.6
		c-0.59-0.59-1.18-1.18-1.77-1.77c-82.8-82.97-165.61-165.94-248.41-248.91c-0.39-0.39-0.79-0.78-1.18-1.17
		c-0.2-0.19-0.4-0.38-0.61-0.56c-0.21-0.18-0.41-0.37-0.64-0.54c-0.22-0.16-0.45-0.35-0.71-0.43c-0.22-0.07-0.48-0.02-1.92-0.02
		c0,3.09,0,6.27,0,9.45c0,188.05-0.01,376.1,0.01,564.15c0,22.54-0.87,45.01-6.49,66.96c-2.06,8.04-4.62,16.03-7.83,23.67
		c-14.52,34.55-40.85,54.62-77.4,61.2c-10.6,1.91-21.52,2.78-32.3,2.84c-50.27,0.29-100.55,0.14-150.83,0.11
		c-2.97,0-5.95-0.26-9.14-0.41C360.74,1088.57,360.74,807.33,360.74,525.1z M531.04,525.15c1.7,2.41,2.2,3.37,2.93,4.1
		c36.15,36.1,72.32,72.17,108.51,108.24c0.16,0.16,0.52,0.19,0.77,0.15c0.26-0.04,0.49-0.25,1.44-0.77
		c-1-25.3-3.41-50.52-17.35-73.1c-6.58-10.67-15.62-18.68-26.81-24.29C579.17,528.76,556.14,526.32,531.04,525.15z"/>
	<path d="M1358.61,1370.64c0-4.96,0-8.95,0-13.03c4.13,4.32,8,8.36,12.07,12.62C1367.49,1372.15,1363.34,1370.83,1358.61,1370.64z"
		/>
	<path class="st0" d="M531.04,525.15c25.1,1.17,48.13,3.61,69.49,14.32c11.2,5.62,20.23,13.63,26.81,24.29
		c13.94,22.58,16.35,47.8,17.35,73.1c-0.95,0.52-1.18,0.73-1.44,0.77c-0.25,0.04-0.61,0.01-0.77-0.15
		c-36.18-36.06-72.36-72.14-108.51-108.24C533.24,528.53,532.74,527.56,531.04,525.15z"/>
</g>
</svg>
