<svg id="Layer_1" data-name="Layer 1" xmlns="http://www.w3.org/2000/svg" viewBox="0 0 600 600"><defs><style>.cls-1{fill:#fff;}</style></defs><title>DDsimple</title><path class="cls-1" d="M606.48,696.48H6.48v-600h600ZM306.8,693.61H591.42c.88,0,1.76,0,2.64,0,3.48-.28,6.67-1.24,8.45-4.56a14.61,14.61,0,0,0,1.35-7q0-285.46,0-570.93a23.09,23.09,0,0,0-.64-5,7.25,7.25,0,0,0-5.88-5.9,24.12,24.12,0,0,0-5.21-.65q-285.21,0-570.44,0c-.72,0-1.45,0-2.16,0-3.47.35-6.67,1.31-8.39,4.68a15.11,15.11,0,0,0-1.29,7q0,285.35,0,570.69c0,.64-.05,1.28,0,1.92.31,3.48,1.27,6.66,4.62,8.41a14.24,14.24,0,0,0,6.74,1.33Q164,693.59,306.8,693.61Z" transform="translate(-6.48 -96.48)"/><path d="M306.8,693.61q-142.8,0-285.59,0a14.24,14.24,0,0,1-6.74-1.33c-3.35-1.75-4.31-4.93-4.62-8.41-.06-.64,0-1.28,0-1.92q0-285.35,0-570.69a15.11,15.11,0,0,1,1.29-7C12.83,100.91,16,100,19.5,99.6c.71-.07,1.44,0,2.16,0q285.23,0,570.44,0a24.12,24.12,0,0,1,5.21.65,7.25,7.25,0,0,1,5.88,5.9,23.09,23.09,0,0,1,.64,5q0,285.47,0,570.93a14.61,14.61,0,0,1-1.35,7c-1.78,3.32-5,4.28-8.45,4.56-.88.07-1.76,0-2.64,0ZM27.92,675.69H573.23c.06-.17.12-.35.19-.53-.6-.61-1.18-1.23-1.78-1.83q-48.27-48.27-96.53-96.59a6.47,6.47,0,0,0-5-2.08q-67.08.09-134.16,0a22.51,22.51,0,0,1-5-.59,7.27,7.27,0,0,1-5.76-5.74,24.07,24.07,0,0,1-.6-5.21q0-67.2,0-134.4a5.38,5.38,0,0,0-1.71-4.21q-16.62-16.47-33.13-33.06c-.53-.53-1.12-1-2-1.82v3.06q-.15,45.23-.29,90.46a172.66,172.66,0,0,1-1.62,24.36c-1.2,8.31-3.64,16.18-8.3,23.28a109.94,109.94,0,0,1-17.29,20.77c-9.43,8.68-20.07,15.29-32.41,19a97.73,97.73,0,0,1-28.1,4.2q-75.24-.13-150.48,0c-.88,0-1.76,0-2.64,0-3.43-.27-6.47-1.39-8.11-4.66a15,15,0,0,1-1.26-6.77q0-182.28,0-364.55c0-.56,0-1.13,0-1.68.33-3.36,1.13-6.51,4.36-8.32a12.88,12.88,0,0,1,6.46-1.46H82.39c.83,0,1.67-.07,2.5-.1l.22-.49L28.52,129.79l-.6.42ZM324,400.38l.53-.18v-3q0-99.12,0-198.25a25,25,0,0,1,.63-5.44,7,7,0,0,1,5.18-5.44,20,20,0,0,1,5.42-.8q69.24-.06,138.47,0c9.27,0,18.55,0,27.82.34a155.81,155.81,0,0,1,17.39,1.57,56.52,56.52,0,0,1,17,4.89,76.82,76.82,0,0,1,24.59,19.22,48.54,48.54,0,0,1,11,21.3,129.79,129.79,0,0,1,2.86,28.31q.11,93.95,0,187.91c0,11.28-.11,22.56-.18,33.83a166.14,166.14,0,0,1-1.44,21.5c-.92,6.67-2.31,13.22-5.47,19.27a98.61,98.61,0,0,1-20.69,26.53,84.06,84.06,0,0,1-45.36,21.72c-1.15.17-2.28.4-3.52.63a3.62,3.62,0,0,0,.42.78l86.59,86.5a.29.29,0,0,0,.21,0,1.07,1.07,0,0,0,.23-.1V117.68c-.6-.05-1.06-.11-1.52-.11q-271.07,0-542.14.09s-.12.08-.16.14-.06.14-.27.62a17.16,17.16,0,0,1,1.75,1.38Q76,152.38,108.54,185a7,7,0,0,0,5.44,2.3q42.72-.12,85.44,0c5,0,9.91.08,14.85.31s10,.56,15,1.14a61.63,61.63,0,0,1,17.63,4.38,74.21,74.21,0,0,1,28.45,22.2,49.34,49.34,0,0,1,9.66,20.65c2.06,9.44,2.56,19,2.61,28.57.16,32.32.08,64.64,0,97a5.85,5.85,0,0,0,1.93,4.59c10.91,10.81,21.75,21.7,32.61,32.56C322.82,399.21,323.44,399.79,324,400.38ZM435.48,511.64c.64.76.91,1.13,1.23,1.45q21.29,21.3,42.57,42.61a3.7,3.7,0,0,0,3,1.16c2.48-.07,5,0,7.44,0a67.64,67.64,0,0,0,28.48-6.64c13.23-6.37,23.15-16.35,31.11-28.43A36.39,36.39,0,0,0,555.21,507,194.28,194.28,0,0,0,557,478.78q.11-104.14.05-208.3c0-8-.25-16-1-23.93-.69-7.58-2.79-14.59-7.75-20.52a61.75,61.75,0,0,0-15.66-13.65,39.9,39.9,0,0,0-14-5.42A140,140,0,0,0,496,205.15q-75.1-.12-150.22,0c-.56,0-1.12,0-1.68,0s-1.05.15-1.7.26V415.71a11.52,11.52,0,0,1,0,1.44,3.35,3.35,0,0,0,1.24,2.94q27.6,27.54,55.17,55.12a16.6,16.6,0,0,0,1.57,1.17v-3.47q0-105.72,0-211.42c0-7.74,3.35-11.07,11.12-11.07q21.36,0,42.72,0a80.37,80.37,0,0,1,21.1,2.55c8.94,2.38,15.69,7.46,19.72,15.81a47.13,47.13,0,0,1,4.48,20.68q.06,87,0,174A67,67,0,0,1,496,485.08c-3.55,10.5-10.26,18.37-20.58,22.76a49.66,49.66,0,0,1-18.69,3.77C449.81,511.73,442.93,511.64,435.48,511.64ZM55.22,556.84h3.35q70.08,0,140.16,0c3.43,0,6.87-.16,10.28-.48a65,65,0,0,0,34-13.68,84.36,84.36,0,0,0,16.65-17.47c4.59-6.28,7.81-13.1,8.67-21a272.05,272.05,0,0,0,1.45-27.5c.19-21.59.06-43.19.06-64.79,0-12.64,0-25.28,0-37.92a5.06,5.06,0,0,0-1.76-4.19c-1.9-1.72-3.64-3.6-5.45-5.41q-24.09-24.09-48.2-48.18c-.57-.56-1-1.4-2.12-1.46v3q0,71.52,0,143a75,75,0,0,1-.94,12.88c-1.12,6.4-2.58,12.69-5.87,18.4a35.74,35.74,0,0,1-20.4,16.85,55.17,55.17,0,0,1-17.2,2.75q-12.72,0-25.44,0c-6.4,0-12.8.08-19.2,0-3.65-.06-7-1-8.91-4.55a14,14,0,0,1-1.35-6.74q0-119.28,0-238.55c0-.56,0-1.12,0-1.68.32-3.37,1.19-6.5,4.4-8.3a12.42,12.42,0,0,1,6.24-1.38q11,0,22.08,0c.73,0,1.57.32,2.29-.49-.36-.4-.65-.76-1-1.09q-21.21-21.23-42.41-42.45a4.1,4.1,0,0,0-3.17-1.29c-14.8,0-29.6,0-44.4,0a17.67,17.67,0,0,0-1.92.2ZM418.45,268.28V493.77h2.76c8.8,0,17.6,0,26.4,0,4.07,0,8.15,0,12.21-.32,9-.66,15.51-4.85,19-13.44a43,43,0,0,0,2.9-16.18q.06-52.31,0-104.62,0-34.67,0-69.35a30,30,0,0,0-2.12-12c-1-2.32-2.28-4.54-4.55-5.71a25.85,25.85,0,0,0-7.33-2.79,83.44,83.44,0,0,0-12.63-1.07c-11.28-.14-22.56-.05-33.83-.05ZM131.09,493.77c4.3,0,8.3,0,12.29,0,9.75-.08,19.51.08,29.24-.38,8.33-.38,14.67-4.29,18.32-12.18a41.7,41.7,0,0,0,3.51-17.72q.12-82.53.07-165a4.87,4.87,0,0,0-1.52-3.8q-12.54-12.4-24.94-24.94a4.6,4.6,0,0,0-3.58-1.45c-10.32.06-20.63,0-30.95,0-.78,0-1.55.06-2.44.1Zm-1.48-288.66-.26.5c.53.58,1,1.17,1.59,1.72q20.79,20.79,41.55,41.61a7,7,0,0,0,4.17,2,115.84,115.84,0,0,1,11.75,2.21c11.35,3.12,18.67,10.43,21.59,21.88.94,3.7,1.48,7.51,2.08,11.29a7.27,7.27,0,0,0,2.1,4.35q26.72,26.58,53.31,53.25c.6.6,1.22,1.19,2.18,2.11.08-1.18.18-1.86.18-2.54-.09-27.59-.14-55.18-.33-82.77,0-5.34-.53-10.68-1-16a33.7,33.7,0,0,0-7.77-19,62.61,62.61,0,0,0-11.16-10.48,42.94,42.94,0,0,0-18.2-8.2A135.86,135.86,0,0,0,209,205.16c-25.68-.14-51.36,0-77,0ZM454.87,556.72c-.73-.81-1.14-1.29-1.58-1.73q-20.94-21-41.87-41.92a6.7,6.7,0,0,0-3.28-1.78,13.2,13.2,0,0,1-3.37-1.11,7.67,7.67,0,0,1-3.91-5.46,6.62,6.62,0,0,0-1.64-3.86q-27.71-27.6-55.33-55.26a9.13,9.13,0,0,0-1.3-.92v112Z" transform="translate(-6.48 -96.48)"/><path class="cls-1" d="M27.92,675.69V130.21l.6-.42,56.59,56.85-.22.49c-.83,0-1.67.1-2.5.1H48.07a12.88,12.88,0,0,0-6.46,1.46c-3.23,1.81-4,5-4.36,8.32,0,.55,0,1.12,0,1.68q0,182.28,0,364.55A15,15,0,0,0,38.48,570c1.64,3.27,4.68,4.39,8.11,4.66.88.07,1.76,0,2.64,0q75.24,0,150.48,0a97.73,97.73,0,0,0,28.1-4.2c12.34-3.68,23-10.29,32.41-19a109.94,109.94,0,0,0,17.29-20.77c4.66-7.1,7.1-15,8.3-23.28a172.66,172.66,0,0,0,1.62-24.36q.12-45.24.29-90.46v-3.06c.93.82,1.52,1.29,2,1.82Q306.33,408,322.9,424.53a5.38,5.38,0,0,1,1.71,4.21q-.06,67.2,0,134.4a24.07,24.07,0,0,0,.6,5.21,7.27,7.27,0,0,0,5.76,5.74,22.51,22.51,0,0,0,5,.59q67.08,0,134.16,0a6.47,6.47,0,0,1,5,2.08q48.23,48.35,96.53,96.59c.6.6,1.18,1.22,1.78,1.83-.07.18-.13.36-.19.53Z" transform="translate(-6.48 -96.48)"/><path class="cls-1" d="M324,400.38c-.6-.59-1.22-1.17-1.82-1.77-10.86-10.86-21.7-21.75-32.61-32.56a5.85,5.85,0,0,1-1.93-4.59c.06-32.32.14-64.64,0-97-.05-9.56-.55-19.13-2.61-28.57a49.34,49.34,0,0,0-9.66-20.65,74.21,74.21,0,0,0-28.45-22.2,61.63,61.63,0,0,0-17.63-4.38c-5-.58-10-.9-15-1.14s-9.9-.3-14.85-.31q-42.72,0-85.44,0a7,7,0,0,1-5.44-2.3Q76,152.33,43.39,119.8a17.16,17.16,0,0,0-1.75-1.38c.21-.48.23-.56.27-.62s.11-.14.16-.14q271.07-.06,542.14-.09c.46,0,.92.06,1.52.11V661.49a1.07,1.07,0,0,1-.23.1.29.29,0,0,1-.21,0l-86.59-86.5a3.62,3.62,0,0,1-.42-.78c1.24-.23,2.37-.46,3.52-.63a84.06,84.06,0,0,0,45.36-21.72,98.61,98.61,0,0,0,20.69-26.53c3.16-6,4.55-12.6,5.47-19.27a166.14,166.14,0,0,0,1.44-21.5c.07-11.27.17-22.55.18-33.83q0-94,0-187.91a129.79,129.79,0,0,0-2.86-28.31,48.54,48.54,0,0,0-11-21.3,76.82,76.82,0,0,0-24.59-19.22,56.52,56.52,0,0,0-17-4.89,155.81,155.81,0,0,0-17.39-1.57c-9.27-.32-18.55-.33-27.82-.34q-69.24,0-138.47,0a20,20,0,0,0-5.42.8,7,7,0,0,0-5.18,5.44,25,25,0,0,0-.63,5.44q0,99.14,0,198.25v3Z" transform="translate(-6.48 -96.48)"/><path class="cls-1" d="M435.48,511.64c7.45,0,14.33.09,21.2,0a49.66,49.66,0,0,0,18.69-3.77c10.32-4.39,17-12.26,20.58-22.76a67,67,0,0,0,3.65-21.65q0-87,0-174a47.13,47.13,0,0,0-4.48-20.68c-4-8.35-10.78-13.43-19.72-15.81a80.37,80.37,0,0,0-21.1-2.55q-21.36,0-42.72,0c-7.77,0-11.12,3.33-11.12,11.07q0,105.7,0,211.42v3.47a16.6,16.6,0,0,1-1.57-1.17q-27.58-27.56-55.17-55.12a3.35,3.35,0,0,1-1.24-2.94,11.52,11.52,0,0,0,0-1.44V205.38c.65-.11,1.17-.22,1.7-.26s1.12,0,1.68,0q75.1,0,150.22,0A140,140,0,0,1,518.7,207a39.9,39.9,0,0,1,14,5.42A61.75,61.75,0,0,1,548.36,226c5,5.93,7.06,12.94,7.75,20.52.73,8,1,15.94,1,23.93q0,104.14-.05,208.3A194.28,194.28,0,0,1,555.21,507a36.39,36.39,0,0,1-5.93,14.79c-8,12.08-17.88,22.06-31.11,28.43a67.64,67.64,0,0,1-28.48,6.64c-2.48,0-5,0-7.44,0a3.7,3.7,0,0,1-3-1.16Q458,534.37,436.71,513.09C436.39,512.77,436.12,512.4,435.48,511.64Z" transform="translate(-6.48 -96.48)"/><path class="cls-1" d="M55.22,556.84V205.32a17.67,17.67,0,0,1,1.92-.2c14.8,0,29.6,0,44.4,0a4.1,4.1,0,0,1,3.17,1.29q21.18,21.25,42.41,42.45c.33.33.62.69,1,1.09-.72.81-1.56.49-2.29.49q-11,0-22.08,0a12.42,12.42,0,0,0-6.24,1.38c-3.21,1.8-4.08,4.93-4.4,8.3,0,.56,0,1.12,0,1.68q0,119.28,0,238.55a14,14,0,0,0,1.35,6.74c1.88,3.53,5.26,4.49,8.91,4.55,6.4.11,12.8,0,19.2,0q12.72,0,25.44,0a55.17,55.17,0,0,0,17.2-2.75,35.74,35.74,0,0,0,20.4-16.85c3.29-5.71,4.75-12,5.87-18.4a75,75,0,0,0,.94-12.88q0-71.52,0-143v-3c1.12.06,1.55.9,2.12,1.46q24.11,24.07,48.2,48.18c1.81,1.81,3.55,3.69,5.45,5.41a5.06,5.06,0,0,1,1.76,4.19c-.07,12.64,0,25.28,0,37.92,0,21.6.13,43.2-.06,64.79a272.05,272.05,0,0,1-1.45,27.5c-.86,7.91-4.08,14.73-8.67,21A84.36,84.36,0,0,1,243,542.66a65,65,0,0,1-34,13.68c-3.41.32-6.85.48-10.28.48q-70.08,0-140.16,0Z" transform="translate(-6.48 -96.48)"/><path class="cls-1" d="M418.45,268.28h2.8c11.27,0,22.55-.09,33.83.05a83.44,83.44,0,0,1,12.63,1.07,25.85,25.85,0,0,1,7.33,2.79c2.27,1.17,3.55,3.39,4.55,5.71a30,30,0,0,1,2.12,12q0,34.68,0,69.35,0,52.32,0,104.62A43,43,0,0,1,478.8,480c-3.47,8.59-10,12.78-19,13.44-4.06.3-8.14.3-12.21.32-8.8,0-17.6,0-26.4,0h-2.76Z" transform="translate(-6.48 -96.48)"/><path class="cls-1" d="M131.09,493.77V268.39c.89,0,1.66-.1,2.44-.1,10.32,0,20.63,0,30.95,0a4.6,4.6,0,0,1,3.58,1.45q12.41,12.54,24.94,24.94a4.87,4.87,0,0,1,1.52,3.8q0,82.53-.07,165.05a41.7,41.7,0,0,1-3.51,17.72c-3.65,7.89-10,11.8-18.32,12.18-9.73.46-19.49.3-29.24.38C139.39,493.8,135.39,493.77,131.09,493.77Z" transform="translate(-6.48 -96.48)"/><path class="cls-1" d="M129.61,205.11h2.33c25.68,0,51.36-.09,77,0A135.86,135.86,0,0,1,231.39,207a42.94,42.94,0,0,1,18.2,8.2,62.61,62.61,0,0,1,11.16,10.48,33.7,33.7,0,0,1,7.77,19c.47,5.33,1,10.67,1,16,.19,27.59.24,55.18.33,82.77,0,.68-.1,1.36-.18,2.54-1-.92-1.58-1.51-2.18-2.11q-26.64-26.64-53.31-53.25a7.27,7.27,0,0,1-2.1-4.35c-.6-3.78-1.14-7.59-2.08-11.29-2.92-11.45-10.24-18.76-21.59-21.88a115.84,115.84,0,0,0-11.75-2.21,7,7,0,0,1-4.17-2q-20.73-20.87-41.55-41.61c-.55-.55-1.06-1.14-1.59-1.72Z" transform="translate(-6.48 -96.48)"/><path class="cls-1" d="M454.87,556.72H342.59v-112a9.13,9.13,0,0,1,1.3.92q27.66,27.63,55.33,55.26a6.62,6.62,0,0,1,1.64,3.86,7.67,7.67,0,0,0,3.91,5.46,13.2,13.2,0,0,0,3.37,1.11,6.7,6.7,0,0,1,3.28,1.78q20.91,21,41.87,41.92C453.73,555.43,454.14,555.91,454.87,556.72Z" transform="translate(-6.48 -96.48)"/></svg>