<?xml version="1.0" encoding="UTF-8" standalone="no"?>
<!-- Generator: Adobe Illustrator 21.1.0, SVG Export Plug-In . SVG Version: 6.00 Build 0)  -->

<svg
   xmlns:dc="http://purl.org/dc/elements/1.1/"
   xmlns:cc="http://creativecommons.org/ns#"
   xmlns:rdf="http://www.w3.org/1999/02/22-rdf-syntax-ns#"
   xmlns:svg="http://www.w3.org/2000/svg"
   xmlns="http://www.w3.org/2000/svg"
   xmlns:sodipodi="http://sodipodi.sourceforge.net/DTD/sodipodi-0.dtd"
   xmlns:inkscape="http://www.inkscape.org/namespaces/inkscape"
   version="1.1"
   id="Layer_1"
   x="0px"
   y="0px"
   viewBox="0 0 1024 1024"
   xml:space="preserve"
   sodipodi:docname="Mixer_logo.svg"
   inkscape:version="0.92.4 (5da689c313, 2019-01-14)"
   width="1024"
   height="1024"><metadata
   id="metadata13"><rdf:RDF><cc:Work
       rdf:about=""><dc:format>image/svg+xml</dc:format><dc:type
         rdf:resource="http://purl.org/dc/dcmitype/StillImage" /><dc:title></dc:title></cc:Work></rdf:RDF></metadata><defs
   id="defs11" /><sodipodi:namedview
   pagecolor="#ffffff"
   bordercolor="#666666"
   borderopacity="1"
   objecttolerance="10"
   gridtolerance="10"
   guidetolerance="10"
   inkscape:pageopacity="0"
   inkscape:pageshadow="2"
   inkscape:window-width="1920"
   inkscape:window-height="1017"
   id="namedview9"
   showgrid="false"
   inkscape:pagecheckerboard="true"
   inkscape:zoom="0.4609375"
   inkscape:cx="256"
   inkscape:cy="256"
   inkscape:window-x="-8"
   inkscape:window-y="-8"
   inkscape:window-maximized="1"
   inkscape:current-layer="Layer_1" />
<style
   type="text/css"
   id="style2">
	.st0{fill:#FFFFFF;}
</style>
<path
   class="st0"
   d="M 217.39375,40.39238 C 184.2697,-4.3544885 119.19864,-11.33239 76.763759,27.025061 40.150774,60.737584 37.25031,117.67476 66.885395,157.77669 L 258.06314,414.0255 65.729403,672.60728 c -29.63506,40.10194 -27.302095,97.03912 9.878377,130.75166 42.41388,38.35745 107.50595,31.37952 140.62998,-13.36733 L 484.69789,429.13729 c 6.38942,-8.72239 6.38942,-20.91271 0,-29.63508 z"
   id="path4"
   inkscape:connector-curvature="0"
   style="fill:#ffffff;stroke-width:2.10177827" />
<path
   class="st0"
   d="m 806.60625,40.39238 c 33.12404,-44.7468685 98.19509,-51.72477 140.63001,-13.367319 36.61303,33.712523 39.5135,90.649699 9.87829,130.751629 L 765.93686,414.0255 958.2706,672.60728 c 29.63506,40.10194 27.30208,97.03912 -9.87837,130.75166 -42.41389,38.35745 -107.50597,31.37952 -140.62999,-13.36733 L 539.89059,428.5488 c -6.38938,-8.72238 -6.38938,-20.91269 0,-29.63508 z"
   id="path6"
   inkscape:connector-curvature="0"
   style="fill:#ffffff;stroke-width:2.10177827" />
</svg>