<?xml version="1.0" encoding="UTF-8" standalone="no"?>
<!-- Generator: Adobe Illustrator 21.1.0, SVG Export Plug-In . SVG Version: 6.00 Build 0)  -->

<svg
   xmlns:dc="http://purl.org/dc/elements/1.1/"
   xmlns:cc="http://creativecommons.org/ns#"
   xmlns:rdf="http://www.w3.org/1999/02/22-rdf-syntax-ns#"
   xmlns:svg="http://www.w3.org/2000/svg"
   xmlns="http://www.w3.org/2000/svg"
   xmlns:sodipodi="http://sodipodi.sourceforge.net/DTD/sodipodi-0.dtd"
   xmlns:inkscape="http://www.inkscape.org/namespaces/inkscape"
   version="1.1"
   id="Layer_1"
   x="0px"
   y="0px"
   viewBox="0 0 100 100"
   xml:space="preserve"
   sodipodi:docname="Mixer_logo.svg"
   inkscape:version="0.92.4 (5da689c313, 2019-01-14)"
   width="100"
   height="100"><metadata
   id="metadata13"><rdf:RDF><cc:Work
       rdf:about=""><dc:format>image/svg+xml</dc:format><dc:type
         rdf:resource="http://purl.org/dc/dcmitype/StillImage" /><dc:title></dc:title></cc:Work></rdf:RDF></metadata><defs
   id="defs11" /><sodipodi:namedview
   pagecolor="#ffffff"
   bordercolor="#666666"
   borderopacity="1"
   objecttolerance="10"
   gridtolerance="10"
   guidetolerance="10"
   inkscape:pageopacity="0"
   inkscape:pageshadow="2"
   inkscape:window-width="1920"
   inkscape:window-height="1017"
   id="namedview9"
   showgrid="false"
   inkscape:pagecheckerboard="true"
   inkscape:zoom="3.6875"
   inkscape:cx="-11.932203"
   inkscape:cy="62.606892"
   inkscape:window-x="-8"
   inkscape:window-y="-8"
   inkscape:window-maximized="1"
   inkscape:current-layer="Layer_1" />
<style
   type="text/css"
   id="style2">
	.st0{fill:#FFFFFF;}
</style>
<path
   class="st0"
   d="M 18.602052,10.055366 C 15.071824,5.2864248 8.1368121,4.5427474 3.6142735,8.6307312 -0.28779118,12.223675 -0.59691098,18.291811 2.5614771,22.565713 L 22.936432,49.87568 2.4382762,77.434285 c -3.1583855,4.273904 -2.90974753,10.342038 1.0527976,13.934986 4.5203007,4.087982 11.4575522,3.344302 14.9877772,-1.424637 l 28.611399,-38.4584 c 0.680961,-0.929599 0.680961,-2.228794 0,-3.158388 z"
   id="path4"
   inkscape:connector-curvature="0"
   style="fill:#ffffff;stroke-width:0.22399907" />
<path
   class="st0"
   d="M 81.397948,10.055366 C 84.928175,5.2864248 91.863186,4.5427474 96.385729,8.6307312 100.2878,12.223675 100.59692,18.291811 97.438521,22.565713 L 77.063568,49.87568 97.561722,77.434285 c 3.158388,4.273904 2.909748,10.342038 -1.052795,13.934986 -4.520301,4.087982 -11.457554,3.344302 -14.987778,-1.424637 L 52.972468,51.423513 c -0.680954,-0.929595 -0.680954,-2.22879 0,-3.158387 z"
   id="path6"
   inkscape:connector-curvature="0"
   style="fill:#ffffff;stroke-width:0.22399907" />
</svg>